<svg width="682" height="474" viewBox="0 0 682 474" fill="none" xmlns="http://www.w3.org/2000/svg">
<path d="M32.5244 7.22998C1.81793 10.3006 7.46413 75.4769 8.3706 94.5129C10.8002 145.535 13.1219 210.074 57.5016 243.827C105.385 280.246 172.199 289.276 230.695 288.018C267.913 287.217 320.695 271.293 328.683 227.359C331.601 211.305 307.481 212.055 299.588 219.948C264.642 254.894 284.572 342.504 305.352 378.869C335.93 432.379 375.102 453.611 437.1 451.879C506.331 449.945 593.73 420.043 650.092 377.771" stroke="#6946E4" stroke-width="13" stroke-linecap="round"/>
<path d="M600.687 348.128C613.396 348.128 674.111 346.25 674.795 364.047C676.107 398.162 674.795 432.546 674.795 466.701" stroke="#6946E4" stroke-width="13" stroke-linecap="round"/>
</svg>
