<svg width="242" height="204" viewBox="0 0 242 204" fill="none" xmlns="http://www.w3.org/2000/svg">
<path d="M52 136C52 173.555 40.3594 204 26 204C11.6406 204 0 173.555 0 136C0 98.4446 11.6406 68 26 68C40.3594 68 52 98.4446 52 136Z" fill="#DEC8FE"/>
<ellipse cx="72" cy="120" rx="26" ry="68" fill="#DEC8FE"/>
<ellipse cx="121" cy="100" rx="26" ry="68" fill="#DEC8FE"/>
<ellipse cx="168" cy="84" rx="26" ry="68" fill="#DEC8FE"/>
<path d="M242 68C242 105.555 230.359 136 216 136C201.641 136 190 105.555 190 68C190 30.4446 201.641 0 216 0C230.359 0 242 30.4446 242 68Z" fill="#DEC8FE"/>
</svg>
