<svg width="1015" height="893" viewBox="0 0 1015 893" fill="none" xmlns="http://www.w3.org/2000/svg">
<path d="M30 43V47" stroke="#FFF1CE" stroke-width="57" stroke-linecap="round"/>
<path d="M166 39V43" stroke="#FFF1CE" stroke-width="57" stroke-linecap="round"/>
<path d="M29 158V162" stroke="#FFF1CE" stroke-width="57" stroke-linecap="round"/>
<path d="M166 154V158" stroke="#FFF1CE" stroke-width="57" stroke-linecap="round"/>
<path d="M303 41V45" stroke="#FFF1CE" stroke-width="57" stroke-linecap="round"/>
<path d="M439 37V41" stroke="#FFF1CE" stroke-width="57" stroke-linecap="round"/>
<path d="M302 156V160" stroke="#FFF1CE" stroke-width="57" stroke-linecap="round"/>
<path d="M439 152V156" stroke="#FFF1CE" stroke-width="57" stroke-linecap="round"/>
<path d="M30 275V279" stroke="#FFF1CE" stroke-width="57" stroke-linecap="round"/>
<path d="M166 271V275" stroke="#FFF1CE" stroke-width="57" stroke-linecap="round"/>
<path d="M29 390V394" stroke="#FFF1CE" stroke-width="57" stroke-linecap="round"/>
<path d="M166 386V390" stroke="#FFF1CE" stroke-width="57" stroke-linecap="round"/>
<path d="M303 273V277" stroke="#FFF1CE" stroke-width="57" stroke-linecap="round"/>
<path d="M439 269V273" stroke="#FFF1CE" stroke-width="57" stroke-linecap="round"/>
<path d="M302 388V392" stroke="#FFF1CE" stroke-width="57" stroke-linecap="round"/>
<path d="M439 384V388" stroke="#FFF1CE" stroke-width="57" stroke-linecap="round"/>
<path d="M31 513V517" stroke="#FFF1CE" stroke-width="57" stroke-linecap="round"/>
<path d="M167 509V513" stroke="#FFF1CE" stroke-width="57" stroke-linecap="round"/>
<path d="M30 628V632" stroke="#FFF1CE" stroke-width="57" stroke-linecap="round"/>
<path d="M167 624V628" stroke="#FFF1CE" stroke-width="57" stroke-linecap="round"/>
<path d="M304 511V515" stroke="#FFF1CE" stroke-width="57" stroke-linecap="round"/>
<path d="M440 507V511" stroke="#FFF1CE" stroke-width="57" stroke-linecap="round"/>
<path d="M303 626V630" stroke="#FFF1CE" stroke-width="57" stroke-linecap="round"/>
<path d="M440 622V626" stroke="#FFF1CE" stroke-width="57" stroke-linecap="round"/>
<path d="M31 745V749" stroke="#FFF1CE" stroke-width="57" stroke-linecap="round"/>
<path d="M167 741V745" stroke="#FFF1CE" stroke-width="57" stroke-linecap="round"/>
<path d="M30 860V864" stroke="#FFF1CE" stroke-width="57" stroke-linecap="round"/>
<path d="M167 856V860" stroke="#FFF1CE" stroke-width="57" stroke-linecap="round"/>
<path d="M304 743V747" stroke="#FFF1CE" stroke-width="57" stroke-linecap="round"/>
<path d="M440 739V743" stroke="#FFF1CE" stroke-width="57" stroke-linecap="round"/>
<path d="M303 858V862" stroke="#FFF1CE" stroke-width="57" stroke-linecap="round"/>
<path d="M440 854V858" stroke="#FFF1CE" stroke-width="57" stroke-linecap="round"/>
<path d="M576 35V39" stroke="#FFF1CE" stroke-width="57" stroke-linecap="round"/>
<path d="M712 31V35" stroke="#FFF1CE" stroke-width="57" stroke-linecap="round"/>
<path d="M575 150V154" stroke="#FFF1CE" stroke-width="57" stroke-linecap="round"/>
<path d="M712 146V150" stroke="#FFF1CE" stroke-width="57" stroke-linecap="round"/>
<path d="M849 33V37" stroke="#FFF1CE" stroke-width="57" stroke-linecap="round"/>
<path d="M985 29V33" stroke="#FFF1CE" stroke-width="57" stroke-linecap="round"/>
<path d="M848 148V152" stroke="#FFF1CE" stroke-width="57" stroke-linecap="round"/>
<path d="M985 144V148" stroke="#FFF1CE" stroke-width="57" stroke-linecap="round"/>
<path d="M576 267V271" stroke="#FFF1CE" stroke-width="57" stroke-linecap="round"/>
<path d="M712 263V267" stroke="#FFF1CE" stroke-width="57" stroke-linecap="round"/>
<path d="M575 382V386" stroke="#FFF1CE" stroke-width="57" stroke-linecap="round"/>
<path d="M712 378V382" stroke="#FFF1CE" stroke-width="57" stroke-linecap="round"/>
<path d="M849 265V269" stroke="#FFF1CE" stroke-width="57" stroke-linecap="round"/>
<path d="M985 261V265" stroke="#FFF1CE" stroke-width="57" stroke-linecap="round"/>
<path d="M848 380V384" stroke="#FFF1CE" stroke-width="57" stroke-linecap="round"/>
<path d="M985 376V380" stroke="#FFF1CE" stroke-width="57" stroke-linecap="round"/>
<path d="M577 505V509" stroke="#FFF1CE" stroke-width="57" stroke-linecap="round"/>
<path d="M713 501V505" stroke="#FFF1CE" stroke-width="57" stroke-linecap="round"/>
<path d="M576 620V624" stroke="#FFF1CE" stroke-width="57" stroke-linecap="round"/>
<path d="M713 616V620" stroke="#FFF1CE" stroke-width="57" stroke-linecap="round"/>
<path d="M850 503V507" stroke="#FFF1CE" stroke-width="57" stroke-linecap="round"/>
<path d="M986 499V503" stroke="#FFF1CE" stroke-width="57" stroke-linecap="round"/>
<path d="M849 618V622" stroke="#FFF1CE" stroke-width="57" stroke-linecap="round"/>
<path d="M986 614V618" stroke="#FFF1CE" stroke-width="57" stroke-linecap="round"/>
<path d="M577 737V741" stroke="#FFF1CE" stroke-width="57" stroke-linecap="round"/>
<path d="M713 733V737" stroke="#FFF1CE" stroke-width="57" stroke-linecap="round"/>
<path d="M576 852V856" stroke="#FFF1CE" stroke-width="57" stroke-linecap="round"/>
<path d="M713 848V852" stroke="#FFF1CE" stroke-width="57" stroke-linecap="round"/>
<path d="M850 735V739" stroke="#FFF1CE" stroke-width="57" stroke-linecap="round"/>
<path d="M986 731V735" stroke="#FFF1CE" stroke-width="57" stroke-linecap="round"/>
<path d="M849 850V854" stroke="#FFF1CE" stroke-width="57" stroke-linecap="round"/>
<path d="M986 846V850" stroke="#FFF1CE" stroke-width="57" stroke-linecap="round"/>
</svg>
