<svg width="331" height="59" viewBox="0 0 331 59" fill="none" xmlns="http://www.w3.org/2000/svg">
<path d="M4.85254 53.5307C17.2662 40.6515 28.5511 28.0595 43.9805 18.6072C45.6378 17.5919 51.6899 13.2223 54.2774 14.4885C56.6714 15.66 57.9857 20.6585 58.9968 22.8118C62.7683 30.8437 75.1427 27.3666 82.0789 26.1582C102.492 22.602 122.516 20.096 143.302 21.4817C159.657 22.5721 173.974 17.4044 189.681 13.0298C202.823 9.36943 216.38 5.38377 230.139 5.17841C233.125 5.13384 237.056 4.97104 239.192 7.4952C240.19 8.67462 241.319 8.92486 242.881 9.03972C252.142 9.72066 261.641 8.67789 270.897 8.39617C289.999 7.81482 307.813 8.65491 326.114 14.1452" stroke="#1199B4" stroke-width="9" stroke-linecap="round"/>
</svg>
